<svg xmlns="http://www.w3.org/2000/svg" viewBox="0 0 160 160" fill="none">
  <path d="M27 79C27 49.7 50.7 26 80 26C109.3 26 133 49.7 133 79C133 108.3 109.3 132 80 132H54C39.1 132 27 119.9 27 105V79Z" fill="#EAF7FF"/>
  <circle cx="118" cy="45" r="14" fill="#FFF6C7"/>
  <path d="M113.5 44.5H122.5" stroke="#F2C14E" stroke-width="3.8" stroke-linecap="round"/>
  <path d="M118 40V49" stroke="#F2C14E" stroke-width="3.8" stroke-linecap="round"/>
  <path d="M76 49C97 49 114 66 114 87C114 108 97 125 76 125C55 125 38 108 38 87C38 66 55 49 76 49Z" fill="#84D5C8"/>
  <path d="M73 54C89.6 54 103 67.4 103 84C103 100.6 89.6 114 73 114C56.4 114 43 100.6 43 84C43 67.4 56.4 54 73 54Z" fill="#8FD3FF"/>
  <path d="M102 75C114 76.8 124 86.8 124 99C124 111.7 113.7 122 101 122H83C89.7 117.7 94.2 110.7 96 102.6L102 75Z" fill="#6CCB9F"/>
  <ellipse cx="65.5" cy="82.5" rx="5.5" ry="7.5" fill="#2F3A4A"/>
  <ellipse cx="84.5" cy="82.5" rx="5.5" ry="7.5" fill="#2F3A4A"/>
  <ellipse cx="63.5" cy="80.5" rx="1.5" ry="2" fill="#FFFFFF"/>
  <ellipse cx="82.5" cy="80.5" rx="1.5" ry="2" fill="#FFFFFF"/>
  <ellipse cx="86.5" cy="94" rx="9.5" ry="7" fill="#FFD7E3"/>
  <path d="M96 84L115 91.5L96 99V84Z" fill="#FFB55C"/>
  <path d="M66 97C68.4 99.8 71.8 101.2 76 101.2C80.2 101.2 83.6 99.8 86 97" stroke="#2F3A4A" stroke-width="3.6" stroke-linecap="round"/>
  <path d="M34 112C41 103.5 51.6 98 63.5 98" stroke="#B7E6FF" stroke-width="8" stroke-linecap="round"/>
</svg>
