<svg xmlns="http://www.w3.org/2000/svg" viewBox="0 0 160 160" fill="none">
  <path d="M28 86C28 55.1 53.1 30 84 30C114.9 30 140 55.1 140 86C140 116.9 114.9 142 84 142H58C41.4 142 28 128.6 28 112V86Z" fill="#FFF6D9"/>
  <path d="M41 55C45.5 47.1 54.3 42 64 42" stroke="#FFD27A" stroke-width="8" stroke-linecap="round"/>
  <path d="M112.5 39V49" stroke="#FF9F67" stroke-width="4" stroke-linecap="round"/>
  <path d="M107 45H118" stroke="#FF9F67" stroke-width="4" stroke-linecap="round"/>
  <circle cx="79" cy="88" r="39" fill="#FFD86A"/>
  <circle cx="78" cy="84" r="31" fill="#FFE98B"/>
  <path d="M67 51C69 43.5 73.8 38 81.5 34.5C84.4 39.6 84.9 45.2 83 51" fill="#FFD86A"/>
  <path d="M83 51C84.7 43.1 89.6 37.3 97.5 34C99.9 40.1 99.2 45.8 95.5 51" fill="#FFD27A"/>
  <ellipse cx="67" cy="82" rx="5.3" ry="7.2" fill="#2F3A4A"/>
  <ellipse cx="89" cy="82" rx="5.3" ry="7.2" fill="#2F3A4A"/>
  <ellipse cx="65.2" cy="80.3" rx="1.4" ry="1.9" fill="#FFFFFF"/>
  <ellipse cx="87.2" cy="80.3" rx="1.4" ry="1.9" fill="#FFFFFF"/>
  <path d="M78 88L93 95H78V88Z" fill="#FFB55C"/>
  <path d="M78 88L63 95H78V88Z" fill="#FFA453"/>
  <path d="M66.5 101.5C69.4 105 73.2 106.7 78 106.7C82.8 106.7 86.6 105 89.5 101.5" stroke="#2F3A4A" stroke-width="3.8" stroke-linecap="round"/>
  <ellipse cx="57" cy="95" rx="7" ry="5.5" fill="#FFD27A"/>
  <ellipse cx="99" cy="95" rx="7" ry="5.5" fill="#FFD27A"/>
  <path d="M41 117C50.5 109.6 61.5 106 74 106" stroke="#FFE89B" stroke-width="8" stroke-linecap="round"/>
</svg>
