<svg xmlns="http://www.w3.org/2000/svg" viewBox="0 0 160 160" fill="none">
  <path d="M27 82C27 51.1 52.1 26 83 26C113.9 26 139 51.1 139 82C139 112.9 113.9 138 83 138H58C40.9 138 27 124.1 27 107V82Z" fill="#E8FBEE"/>
  <circle cx="118" cy="44" r="13" fill="#FFF3C1"/>
  <path d="M118 34L120.4 40.7L127 43.1L120.4 45.5L118 52.2L115.6 45.5L109 43.1L115.6 40.7L118 34Z" fill="#F2C14E"/>
  <path d="M51 58L73 42L75.5 70L51 58Z" fill="#FFB16F"/>
  <path d="M103 42L125 58L100.5 70L103 42Z" fill="#FFB16F"/>
  <path d="M79 52C100.5 52 118 69.5 118 91C118 112.5 100.5 130 79 130C57.5 130 40 112.5 40 91C40 69.5 57.5 52 79 52Z" fill="#FFAF66"/>
  <path d="M79 66C94.5 66 107 78.5 107 94C107 109.5 94.5 122 79 122C63.5 122 51 109.5 51 94C51 78.5 63.5 66 79 66Z" fill="#FFF6EF"/>
  <ellipse cx="68" cy="88.5" rx="5.5" ry="7.5" fill="#2F3A4A"/>
  <ellipse cx="90" cy="88.5" rx="5.5" ry="7.5" fill="#2F3A4A"/>
  <ellipse cx="66.2" cy="86.7" rx="1.5" ry="2" fill="#FFFFFF"/>
  <ellipse cx="88.2" cy="86.7" rx="1.5" ry="2" fill="#FFFFFF"/>
  <path d="M79 93L86 99H72L79 93Z" fill="#2F3A4A"/>
  <path d="M70 103C72.6 106.7 75.6 108.5 79 108.5C82.4 108.5 85.4 106.7 88 103" stroke="#2F3A4A" stroke-width="3.6" stroke-linecap="round"/>
  <ellipse cx="56.5" cy="100" rx="7.5" ry="5.8" fill="#FFD7E3"/>
  <ellipse cx="101.5" cy="100" rx="7.5" ry="5.8" fill="#FFD7E3"/>
  <circle cx="113" cy="96" r="10" fill="#FFFFFF" stroke="#6FC7A0" stroke-width="4"/>
  <path d="M120.5 103.5L129 112" stroke="#6FC7A0" stroke-width="4" stroke-linecap="round"/>
</svg>
